Coordinates
version=1
nRows=14
nColumns=46
inDegrees=yes

Units are S.I. units (second, meters, Newtons, ...)
Angles are in degrees.

endheader
time	pelvis_tilt	pelvis_list	pelvis_rotation	pelvis_tx	pelvis_ty	pelvis_tz	bb_angle	bb_tx	bb_ty	bb_tz	hip_flexion_r	hip_adduction_r	hip_rotation_r	knee_angle_r	knee_angle_r_beta	ankle_angle_r	subtalar_angle_r	mtp_angle_r	crank_angle_r	hip_flexion_l	hip_adduction_l	hip_rotation_l	knee_angle_l	knee_angle_l_beta	ankle_angle_l	subtalar_angle_l	mtp_angle_l	crank_angle_l	lumbar_extension	lumbar_bending	lumbar_rotation	arm_flex_r	arm_add_r	arm_rot_r	elbow_flex_r	pro_sup_r	wrist_flex_r	wrist_dev_r	arm_flex_l	arm_add_l	arm_rot_l	elbow_flex_l	pro_sup_l	wrist_flex_l	wrist_dev_l
      0.00500000	    -32.22273595	      0.71160947	     -2.95321336	      0.07025762	      0.98231650	     -0.20536391	      0.00000000	      0.50000000	      0.00000000	      0.25000000	    102.23140870	     -8.12792208	     -3.35942527	     84.09263157	      1.46769330	      7.29687065	     -3.91754580	      0.00000000	      0.00000000	     70.69449551	     -9.81344253	     -0.93437153	     74.71404858	      1.30400615	     -3.62540480	     -8.44687005	      0.00000000	      0.00000000	    -27.54494571	      1.98910970	      0.91969261	     88.23090689	     -4.81085920	     52.49547463	     20.11214039	     38.54226870	      0.00000000	      0.00000000	     86.65867548	    -12.89116820	     55.56117360	     24.88121743	     39.83160186	      0.00000000	      0.00000000
      0.01000000	    -32.26200261	      0.64930958	     -2.89910240	      0.07012322	      0.98212088	     -0.20552136	      0.00000000	      0.50000000	      0.00000000	      0.25000000	    102.31015573	     -8.20769482	     -3.40219676	     84.16484309	      1.46895363	      7.29708665	     -3.88590807	      0.00000000	      0.00000000	     70.77561060	     -9.75194554	     -0.83778317	     74.71579944	      1.30403670	     -3.79832262	     -8.71173181	      0.00000000	      0.00000000	    -27.50134572	      2.08491100	      0.89343881	     88.19732749	     -4.72978236	     51.92453521	     20.14404188	     38.60689949	      0.00000000	      0.00000000	     86.55487205	    -12.71222088	     54.59857061	     24.78596112	     39.85765773	      0.00000000	      0.00000000
      0.01500000	    -32.24934962	      0.62486622	     -2.90881508	      0.07011346	      0.98212206	     -0.20553725	      0.00000000	      0.50000000	      0.00000000	      0.25000000	    102.31838291	     -8.21010529	     -3.42983847	     84.20414207	      1.46963952	      7.31277078	     -3.86680172	      0.00000000	      0.00000000	     70.74654278	     -9.75662402	     -0.80147824	     74.68953806	      1.30357836	     -3.70057662	     -8.61430080	      0.00000000	      0.00000000	    -27.50988547	      2.10455335	      0.93175832	     88.25812716	     -5.07856397	     53.34861099	     20.36543572	     38.58328313	      0.00000000	      0.00000000	     86.66255943	    -12.88327102	     55.57021570	     24.76049989	     40.07463376	      0.00000000	      0.00000000
      0.02000000	    -32.17808489	      0.77626673	     -2.95280164	      0.07030733	      0.98238011	     -0.20548073	      0.00000000	      0.50000000	      0.00000000	      0.25000000	    102.29704167	     -8.17838093	     -3.29346458	     84.26220307	      1.47065288	      7.36757597	     -3.82600145	      0.00000000	      0.00000000	     70.53141667	     -9.72784784	     -1.00358212	     74.52882503	      1.30077338	     -3.69335248	     -8.61325312	      0.00000000	      0.00000000	    -27.59083198	      1.91719666	      0.90533772	     88.25461107	     -5.11837403	     53.79964386	     20.47108901	     37.49461378	      0.00000000	      0.00000000	     86.69524752	    -12.87959526	     55.88575970	     24.85809814	     39.49885211	      0.00000000	      0.00000000
      0.02500000	    -32.20577582	      0.65639850	     -3.01378973	      0.07028241	      0.98195016	     -0.20530332	      0.00000000	      0.50000000	      0.00000000	      0.25000000	    102.37135911	     -8.11768290	     -3.39073531	     84.35509148	      1.47227409	      7.34665672	     -3.81042963	      0.00000000	      0.00000000	     70.51838298	     -9.83347686	     -0.88397121	     74.44476331	      1.29930623	     -3.74951304	     -8.62718747	      0.00000000	      0.00000000	    -27.54331817	      2.03068743	      0.98151857	     88.27540959	     -4.99815926	     54.11137181	     20.01276824	     38.58729502	      0.00000000	      0.00000000	     86.62512300	    -12.83731780	     55.43809754	     24.70990390	     40.38995661	      0.00000000	      0.00000000
      0.03000000	    -32.19225090	      0.66294389	     -2.98544023	      0.07027865	      0.98197798	     -0.20531903	      0.00000000	      0.50000000	      0.00000000	      0.25000000	    102.39844255	     -8.15672782	     -3.37930396	     84.40400649	      1.47312782	      7.31619184	     -3.83585129	      0.00000000	      0.00000000	     70.46277455	     -9.76987783	     -0.87978449	     74.34659797	      1.29759292	     -3.91593004	     -8.86712352	      0.00000000	      0.00000000	    -27.56482476	      2.03715641	      0.96660300	     88.19371294	     -4.52046937	     51.94740996	     19.63957389	     38.59867402	      0.00000000	      0.00000000	     86.44672465	    -12.25000812	     52.94090155	     24.27223838	     40.25422106	      0.00000000	      0.00000000
      0.03500000	    -32.18991153	      0.62294394	     -3.00914152	      0.07027652	      0.98187808	     -0.20521686	      0.00000000	      0.50000000	      0.00000000	      0.25000000	    102.43301020	     -8.13079527	     -3.41084442	     84.46809699	      1.47424641	      7.31719425	     -3.82691226	      0.00000000	      0.00000000	     70.45291904	     -9.81517561	     -0.83743686	     74.33585175	      1.29740537	     -3.80291345	     -8.68234317	      0.00000000	      0.00000000	    -27.55437483	      2.06727445	      0.98130081	     88.29775730	     -4.95487623	     54.17341044	     19.84045588	     39.10779475	      0.00000000	      0.00000000	     86.62260533	    -12.81112608	     55.20288762	     24.58287588	     40.90179494	      0.00000000	      0.00000000
      0.04000000	    -32.37160083	      0.69765825	     -3.04296583	      0.07021579	      0.98163128	     -0.20522236	      0.00000000	      0.50000000	      0.00000000	      0.25000000	    102.68132865	     -8.11725928	     -3.34190915	     84.48367987	      1.47451838	      7.14726772	     -3.61265580	      0.00000000	      0.00000000	     70.62806192	     -9.80496083	     -0.98443673	     74.25731155	      1.29603458	     -4.43619171	     -9.45503952	      0.00000000	      0.00000000	    -27.36612023	      2.02166432	      0.89965223	     87.99029781	     -4.65152699	     51.11763094	     20.75660128	     39.22361060	      0.00000000	      0.00000000	     86.17879649	    -12.52921418	     51.88305329	     24.91858750	     40.74057354	      0.00000000	      0.00000000
      0.04500000	    -32.18454479	      0.62969325	     -3.02346871	      0.07032238	      0.98184135	     -0.20518065	      0.00000000	      0.50000000	      0.00000000	      0.25000000	    102.50691908	     -8.13564955	     -3.40019045	     84.58335090	      1.47625797	      7.29193559	     -3.78855134	      0.00000000	      0.00000000	     70.39069849	     -9.80245692	     -0.83976804	     74.24929944	      1.29589474	     -3.75988152	     -8.66223617	      0.00000000	      0.00000000	    -27.54520651	      2.07832929	      0.94931242	     88.30803842	     -4.75823199	     53.89845128	     19.52922940	     39.61049796	      0.00000000	      0.00000000	     86.57474974	    -12.93198886	     55.05276466	     24.67007457	     41.40878003	      0.00000000	      0.00000000
      0.05000000	    -32.17603987	      0.59274698	     -3.00924014	      0.07026402	      0.98182780	     -0.20523003	      0.00000000	      0.50000000	      0.00000000	      0.25000000	    102.52817478	     -8.16241188	     -3.43345184	     84.63587838	      1.47717474	      7.26758726	     -3.76857866	      0.00000000	      0.00000000	     70.37457893	     -9.77859218	     -0.77818856	     74.21010205	      1.29521062	     -3.71483500	     -8.67839714	      0.00000000	      0.00000000	    -27.54773638	      2.11735090	      0.99037690	     88.26360710	     -4.59307550	     53.02915615	     19.46743533	     39.03806655	      0.00000000	      0.00000000	     86.49832737	    -12.48996415	     53.69043286	     24.29537588	     40.93469640	      0.00000000	      0.00000000
      0.05500000	    -32.18441283	      0.64265146	     -3.04421851	      0.07023860	      0.98181766	     -0.20520070	      0.00000000	      0.50000000	      0.00000000	      0.25000000	    102.58484578	     -8.12086543	     -3.37577803	     84.68002718	      1.47794529	      7.24823224	     -3.78920712	      0.00000000	      0.00000000	     70.33407376	     -9.76608060	     -0.83180162	     74.13859215	      1.29396254	     -3.82927119	     -8.81959982	      0.00000000	      0.00000000	    -27.54130377	      2.05402339	      0.99658949	     88.25794245	     -4.57594150	     52.85478805	     19.51397000	     39.06431015	      0.00000000	      0.00000000	     86.47898301	    -12.43103639	     53.48774024	     24.25471854	     40.95413638	      0.00000000	      0.00000000
      0.06000000	    -32.17253035	      0.62034448	     -3.05129914	      0.07022365	      0.98175675	     -0.20519852	      0.00000000	      0.50000000	      0.00000000	      0.25000000	    102.61165043	     -8.12764414	     -3.40418494	     84.74489691	      1.47907748	      7.24086932	     -3.81149965	      0.00000000	      0.00000000	     70.30900062	     -9.76792230	     -0.79247891	     74.11880658	      1.29361721	     -3.72889676	     -8.69573005	      0.00000000	      0.00000000	    -27.54465338	      2.07220626	      1.02510927	     88.32026826	     -4.98380125	     54.42919970	     19.81336657	     39.28221035	      0.00000000	      0.00000000	     86.61949819	    -12.73585725	     55.05027557	     24.35019024	     41.32085223	      0.00000000	      0.00000000
      0.06500000	    -32.16611294	      0.60817141	     -3.06618540	      0.07019671	      0.98176767	     -0.20518669	      0.00000000	      0.50000000	      0.00000000	      0.25000000	    102.62670368	     -8.11512079	     -3.41795753	     84.78021957	      1.47969397	      7.25585145	     -3.81868399	      0.00000000	      0.00000000	     70.28043708	     -9.76857388	     -0.77298257	     74.06729321	      1.29271813	     -3.75807141	     -8.70372684	      0.00000000	      0.00000000	    -27.54253424	      2.09168156	      1.02293102	     88.33265889	     -4.98457242	     54.65329948	     19.80915464	     39.36196900	      0.00000000	      0.00000000	     86.62013332	    -12.83987431	     55.28247229	     24.40873330	     41.49971565	      0.00000000	      0.00000000
      0.07000000	    -32.14974928	      0.59023936	     -3.06816042	      0.07018749	      0.98172180	     -0.20514555	      0.00000000	      0.50000000	      0.00000000	      0.25000000	    102.65762202	     -8.11901793	     -3.43766773	     84.85185786	      1.48094430	      7.23527407	     -3.84077263	      0.00000000	      0.00000000	     70.24955944	     -9.77226818	     -0.75098633	     74.04392591	      1.29231030	     -3.70845543	     -8.71521174	      0.00000000	      0.00000000	    -27.56751059	      2.10633512	      1.03529765	     88.33649112	     -4.87359439	     54.25771171	     19.62062423	     39.67771275	      0.00000000	      0.00000000	     86.61234912	    -12.78566282	     54.88647023	     24.37499285	     41.74947315	      0.00000000	      0.00000000
